<svg width="1536" height="2752" viewBox="0 0 1536 2752" fill="none" xmlns="http://www.w3.org/2000/svg">
<rect width="1536" height="2752" fill="#0B0A07"/>
<path d="M181 1120L183.827 1114.83L189 1112L183.827 1109.17L181 1104L178.173 1109.17L173 1112L178.173 1114.83L181 1120Z" fill="white"/>
<path d="M55.4426 815.674L58.4265 810.283L63.8852 807.337L58.4265 804.39L55.4426 799L52.4588 804.39L47 807.337L52.4588 810.283L55.4426 815.674Z" fill="white"/>
<path d="M373.443 2584.67L376.426 2579.28L381.885 2576.34L376.426 2573.39L373.443 2568L370.459 2573.39L365 2576.34L370.459 2579.28L373.443 2584.67Z" fill="white"/>
<path d="M51 1144L55.5946 1135.59L64 1131L55.5946 1126.41L51 1118L46.4055 1126.41L38 1131L46.4055 1135.59L51 1144Z" fill="white"/>
<path d="M68 1666L72.5946 1657.59L81 1653L72.5946 1648.41L68 1640L63.4055 1648.41L55 1653L63.4055 1657.59L68 1666Z" fill="white"/>
<path d="M218 632L220.121 628.121L224 626L220.121 623.879L218 620L215.879 623.879L212 626L215.879 628.121L218 632Z" fill="white"/>
<path d="M194 237L198.595 228.595L207 224L198.595 219.405L194 211L189.406 219.405L181 224L189.406 228.595L194 237Z" fill="white"/>
<path d="M311 448L314.181 442.181L320 439L314.181 435.819L311 430L307.819 435.819L302 439L307.819 442.181L311 448Z" fill="white"/>
<path d="M1097 466L1100.18 460.181L1106 457L1100.18 453.819L1097 448L1093.82 453.819L1088 457L1093.82 460.181L1097 466Z" fill="white"/>
<path d="M356 2146L359.181 2140.18L365 2137L359.181 2133.82L356 2128L352.819 2133.82L347 2137L352.819 2140.18L356 2146Z" fill="white"/>
<path d="M1177 498L1180.18 492.181L1186 489L1180.18 485.819L1177 480L1173.82 485.819L1168 489L1173.82 492.181L1177 498Z" fill="white"/>
<path d="M797 760L800.181 754.181L806 751L800.181 747.819L797 742L793.819 747.819L788 751L793.819 754.181L797 760Z" fill="white"/>
<path d="M405 1662L408.181 1656.18L414 1653L408.181 1649.82L405 1644L401.819 1649.82L396 1653L401.819 1656.18L405 1662Z" fill="white"/>
<path d="M609 2673L612.181 2667.18L618 2664L612.181 2660.82L609 2655L605.819 2660.82L600 2664L605.819 2667.18L609 2673Z" fill="white"/>
<path d="M596 680L597.414 677.414L600 676L597.414 674.586L596 672L594.586 674.586L592 676L594.586 677.414L596 680Z" fill="white"/>
<path d="M1195 242L1198.18 236.181L1204 233L1198.18 229.819L1195 224L1191.82 229.819L1186 233L1191.82 236.181L1195 242Z" fill="white"/>
<path d="M1397 812L1401.59 803.595L1410 799L1401.59 794.405L1397 786L1392.41 794.405L1384 799L1392.41 803.595L1397 812Z" fill="white"/>
<path d="M940 2618L944.595 2609.59L953 2605L944.595 2600.41L940 2592L935.406 2600.41L927 2605L935.406 2609.59L940 2618Z" fill="white"/>
<path d="M745 2189L749.595 2180.59L758 2176L749.595 2171.41L745 2163L740.406 2171.41L732 2176L740.406 2180.59L745 2189Z" fill="white"/>
<path d="M111 2645L115.595 2636.59L124 2632L115.595 2627.41L111 2619L106.406 2627.41L98 2632L106.406 2636.59L111 2645Z" fill="white"/>
<path d="M1352.5 1157L1359.75 1143.75L1373 1136.5L1359.75 1129.25L1352.5 1116L1345.25 1129.25L1332 1136.5L1345.25 1143.75L1352.5 1157Z" fill="white"/>
<path d="M711.5 1436L718.745 1422.75L732 1415.5L718.745 1408.25L711.5 1395L704.255 1408.25L691 1415.5L704.255 1422.75L711.5 1436Z" fill="white"/>
<path d="M1409.5 1957L1416.75 1943.75L1430 1936.5L1416.75 1929.25L1409.5 1916L1402.25 1929.25L1389 1936.5L1402.25 1943.75L1409.5 1957Z" fill="white"/>
<path d="M1377 1296L1379.83 1290.83L1385 1288L1379.83 1285.17L1377 1280L1374.17 1285.17L1369 1288L1374.17 1290.83L1377 1296Z" fill="white"/>
<path d="M753 1072L755.827 1066.83L761 1064L755.827 1061.17L753 1056L750.173 1061.17L745 1064L750.173 1066.83L753 1072Z" fill="white"/>
<path d="M1298 2640L1300.83 2634.83L1306 2632L1300.83 2629.17L1298 2624L1295.17 2629.17L1290 2632L1295.17 2634.83L1298 2640Z" fill="white"/>
<path d="M1080 2248L1082.83 2242.83L1088 2240L1082.83 2237.17L1080 2232L1077.17 2237.17L1072 2240L1077.17 2242.83L1080 2248Z" fill="white"/>
<path d="M51 2082L53.8274 2076.83L59 2074L53.8274 2071.17L51 2066L48.1726 2071.17L43 2074L48.1726 2076.83L51 2082Z" fill="white"/>
<path d="M961 1832L963.827 1826.83L969 1824L963.827 1821.17L961 1816L958.173 1821.17L953 1824L958.173 1826.83L961 1832Z" fill="white"/>
</svg>
