<svg width="1249" height="993" viewBox="0 0 1249 993" fill="none" xmlns="http://www.w3.org/2000/svg">
<g opacity="0.1">
<path d="M446.783 801.8L833.789 422.359L878.197 466.766L806.479 534.308L760.579 561.653L789.572 550.231L577.225 750.213L444.385 804.194L500.557 673.545L614.239 551.008L599.553 584.601L637.318 526.131L781.813 370.383L826.224 414.794L446.783 801.8ZM871.631 403.235L987.729 519.333L1035.93 519.326L1035.92 589.431L965.814 589.439L965.819 541.243L707.337 282.761L659.141 282.766L659.148 212.661L729.253 212.653L729.247 260.851L847.536 379.139L981.189 245.486L1005.28 269.582L871.631 403.235ZM833.789 422.359L826.224 414.794L826.226 414.793L833.791 422.357L833.789 422.359ZM1061.05 189.244C1079.86 208.048 1079.87 238.526 1061.07 257.319C1042.28 276.111 1011.8 276.101 992.999 257.297C974.195 238.493 974.186 208.015 992.979 189.223C1011.77 170.431 1042.25 170.44 1061.05 189.244Z" fill="#E2D3EA"/>
</g>
<g opacity="0.1">
<path d="M800.881 800.879L421.823 414.269L466.162 369.93L533.636 441.574L560.958 487.422L549.543 458.464L749.325 670.59L803.273 803.273L672.776 747.138L550.367 633.569L583.921 648.246L525.517 610.515L369.929 466.162L414.271 421.821L800.881 800.879ZM402.714 376.469L518.63 260.553L518.612 212.418L588.626 212.445L588.653 282.459L540.518 282.441L282.441 540.518L282.459 588.653L212.445 588.626L212.418 518.612L260.553 518.63L378.656 400.527L245.14 267.01L269.197 242.953L402.714 376.469ZM421.823 414.269L414.271 421.821L414.269 421.82L421.822 414.267L421.823 414.269ZM188.947 187.233C207.722 168.459 238.161 168.457 256.935 187.231C275.708 206.004 275.707 236.443 256.932 255.218C238.157 273.992 207.719 273.993 188.945 255.22C170.172 236.447 170.173 206.008 188.947 187.233Z" fill="#E2D3EA"/>
</g>
</svg>
